<?xml version="1.0" encoding="UTF-8" standalone="no"?>
<!-- Created with Inkscape (http://www.inkscape.org/) -->

<svg
   width="1000"
   height="250"
   viewBox="0 0 1000 250"
   version="1.1"
   id="svg1"
   xml:space="preserve"
   xmlns="http://www.w3.org/2000/svg"
   xmlns:svg="http://www.w3.org/2000/svg"><defs
     id="defs1" /><g
     id="layer1"><path
       style="fill:#000000;stroke-width:0.908492"
       d="m 180.063,244.59041 c -2.49834,-0.4241 -9.18692,-2.62819 -14.86348,-4.89802 -13.05143,-5.21868 -27.87672,-8.89645 -43.65248,-10.82901 -9.93724,-1.21734 -16.39503,-1.39269 -33.094705,-0.89868 -15.31321,0.45301 -21.084288,0.33495 -22.030925,-0.45069 -1.930455,-1.60214 -1.917831,-117.28779 0.01296,-118.89021 0.712579,-0.59139 3.063302,-0.94807 5.22383,-0.79262 l 3.928215,0.28264 0.454243,50.72205 c 0.418934,46.7796 0.576758,50.81159 2.030429,51.87419 0.947261,0.69241 7.653571,1.59972 16.807094,2.27385 24.386049,1.79596 43.913049,5.79956 62.822819,12.88046 15.94063,5.96911 17.43424,4.50139 3.05653,-3.00353 -18.0057,-9.39865 -34.65776,-13.57651 -61.096082,-15.32845 -7.744896,-0.51321 -15.001468,-1.12598 -16.125724,-1.36171 l -2.044109,-0.4286 v -55.19855 c 0,-49.87852 0.144816,-55.405304 1.502601,-57.343806 1.475434,-2.106494 1.701216,-2.136001 12.49176,-1.632988 12.593724,0.587077 24.781404,3.369541 35.995384,8.21782 16.22834,7.016194 33.97816,18.403154 46.82867,30.041834 3.64144,3.29804 6.99781,5.99644 7.45856,5.99644 0.46076,0 3.40876,-2.35073 6.55109,-5.22383 9.53549,-8.71852 20.78828,-16.43692 32.2205,-22.1004 5.97466,-2.95981 11.59595,-5.38148 12.49177,-5.38148 1.3778,0 1.62875,0.80757 1.62875,5.24112 v 5.2411 l -8.40355,3.85489 c -4.62195,2.12019 -11.47667,5.8639 -15.2327,8.31938 -8.79641,5.75056 -21.40646,16.66889 -23.15349,20.04731 -1.14496,2.21409 -1.36033,8.69074 -1.36033,40.90818 v 38.27762 l 7.04081,-6.48985 c 9.074,-8.36391 20.38992,-16.08537 32.11658,-21.91482 9.66978,-4.80697 24.59066,-10.1092 31.70497,-11.26658 7.94642,-1.29276 7.22164,3.30537 7.4866,-47.49597 l 0.23558,-45.170036 h 8.17643 8.17643 v 56.780746 56.78073 l -14.86672,1.09532 c -29.24554,2.1547 -50.23559,7.86643 -66.02416,17.96627 -3.81423,2.43993 -4.91847,3.57014 -4.02664,4.12132 0.71919,0.44449 2.19305,0.26802 3.55376,-0.4255 1.27873,-0.65173 7.90406,-3.08977 14.72295,-5.41785 17.70778,-6.04576 35.88199,-9.33875 61.0517,-11.06197 12.68478,-0.86843 11.4943,4.76863 11.4943,-54.42766 v -50.42129 h 4.44526 c 3.21543,0 4.59783,0.39758 4.99671,1.43704 0.3033,0.79037 0.55144,27.54404 0.55144,59.4526 0,45.41478 -0.24664,58.17519 -1.1356,58.75053 -0.62459,0.40425 -12.37821,0.74236 -26.11915,0.75138 -19.69187,0.0129 -27.08124,0.36186 -34.88747,1.64756 -11.75413,1.93594 -27.37433,6.52911 -37.81507,11.11964 -8.60091,3.7816 -14.80542,4.87901 -21.32637,3.77208 z m -1.20755,-59.48175 c -0.26745,-33.91931 -0.46485,-38.21787 -1.86702,-40.65516 -3.58805,-6.23693 -24.7824,-21.84991 -40.0859,-29.52955 -12.8615,-6.45421 -36.22852,-13.08701 -40.42783,-11.47558 -1.172996,0.45011 -1.353812,5.758 -1.341773,39.38676 0.0077,21.37659 0.314265,39.32135 0.681369,39.87724 0.367104,0.5559 5.158854,1.92561 10.648344,3.04383 21.70944,4.42224 41.04994,13.26555 60.04554,27.45542 4.53694,3.38912 8.99513,6.98651 9.90709,7.99423 0.91197,1.00771 1.90137,1.83226 2.19867,1.83235 0.29731,9e-5 0.40598,-17.06821 0.24151,-37.92954 z m 397.76424,19.45794 c -3.55847,-1.23945 -3.59867,-1.57481 -1.0527,-8.78331 1.13034,-3.20034 2.20836,-4.88443 2.99861,-4.68438 4.77889,1.20972 7.30266,1.15215 9.38791,-0.21416 2.76791,-1.8136 5.28951,-7.43303 4.7322,-10.54583 -0.22363,-1.24917 -5.12692,-13.83538 -10.89615,-27.96934 l -10.48953,-25.69812 8.30815,0.26034 8.30815,0.26035 6.74523,18.41946 c 3.70989,10.13069 6.92326,18.24144 7.14085,18.02387 0.21757,-0.21758 1.75706,-4.21372 3.4211,-8.8803 1.66402,-4.66658 4.59635,-12.87657 6.51628,-18.2444 l 3.49081,-9.75967 7.94929,-0.006 c 4.37213,-0.004 7.94931,0.28762 7.94931,0.64719 0,0.9774 -24.49639,61.96541 -26.41789,65.77193 -2.48743,4.92764 -6.10717,8.85003 -9.99986,10.83594 -4.03081,2.05635 -13.00815,2.33772 -18.09176,0.56705 z m 124.46338,-38.76354 v -39.06515 h 7.72219 7.72217 v 3.17372 3.17371 l 4.08407,-3.11743 c 6.79892,-5.18974 19.34676,-5.64364 27.29225,-0.98726 11.98967,7.02641 16.59738,25.50354 10.01668,40.16726 -4.72175,10.52146 -12.41931,15.2889 -24.58589,15.22716 -7.27613,-0.0369 -11.2724,-1.28191 -15.21725,-4.74076 -1.50524,-1.31978 -1.58986,-0.68536 -1.58986,11.91995 v 13.31394 h -7.72217 -7.72219 z m 37.24864,3.40684 c 4.85981,-3.31726 6.51318,-7.32231 6.16924,-14.94402 -0.21847,-4.84075 -0.77796,-7.18714 -2.15296,-9.02879 -3.04087,-4.07291 -6.34458,-6.00958 -10.98989,-6.44237 -5.57511,-0.51941 -9.84241,2.11591 -12.8527,7.93734 -1.76494,3.41315 -2.04528,5.07957 -1.71322,10.18439 0.44485,6.83884 1.99304,9.89103 6.37118,12.56054 4.13066,2.51864 11.27143,2.3929 15.16835,-0.26709 z m -387.92649,14.0792 c -6.2925,-1.70769 -15.23975,-6.30783 -16.66577,-8.56855 -0.63688,-1.00966 0.12928,-2.70834 2.93385,-6.50474 2.0877,-2.82602 3.96919,-5.13823 4.18107,-5.13823 0.21188,0 1.86496,1.00416 3.6735,2.23147 8.0441,5.45888 18.83436,7.38822 25.57312,4.57258 4.03153,-1.68448 5.67529,-3.73329 5.71312,-7.12093 0.0463,-4.13978 -4.06144,-7.15922 -13.74043,-10.10024 -20.51118,-6.23245 -27.04053,-11.90698 -27.09287,-23.54592 -0.0576,-12.8059 7.69818,-20.94917 22.15125,-23.25807 9.70793,-1.55085 22.86815,1.27921 28.52108,6.13334 l 2.89213,2.48346 -3.14165,4.90738 c -1.7279,2.69907 -3.26382,5.27391 -3.41314,5.72187 -0.14931,0.44797 -2.85236,-0.51658 -6.00675,-2.14342 -12.74938,-6.57538 -26.60566,-3.14861 -24.30669,6.01123 0.81631,3.25242 4.74021,5.42285 16.44378,9.09553 15.81498,4.96287 20.94222,9.18114 23.15363,19.04893 2.27541,10.15336 -3.47709,20.5838 -13.81486,25.0491 -6.5697,2.83773 -18.86051,3.34891 -27.05437,1.12521 z m 65.52298,0.6819 c -3.5372,-0.83513 -6.97974,-3.20513 -9.43775,-6.49736 -2.20915,-2.95892 -3.32525,-11.73161 -3.36298,-26.43358 l -0.0298,-11.58327 h -4.0882 -4.08822 v -6.35945 -6.35943 l 4.31534,0.002 4.31535,0.002 -0.29631,-7.27007 -0.2963,-7.27007 2.56753,-0.12012 c 1.41214,-0.066 5.02046,-0.16828 8.01848,-0.22713 l 5.45095,-0.10699 0.26386,7.49505 0.26387,7.49506 h 7.23119 7.23119 v 6.35943 6.35945 h -7.33187 -7.3319 l 0.29108,14.16394 c 0.28464,13.8507 0.3413,14.2046 2.5623,16.00306 1.90395,1.54169 3.10096,1.75258 7.40214,1.30405 l 5.13093,-0.53505 0.97797,5.55199 c 0.53787,3.0536 0.78043,5.87161 0.53899,6.26228 -1.29502,2.09536 -14.15916,3.21329 -20.29791,1.76395 z m 40.36885,-0.4452 c -5.40089,-1.92399 -7.99579,-4.18256 -10.50018,-9.13928 -2.20299,-4.36015 -2.27985,-5.14371 -2.55779,-26.07194 l -0.28656,-21.57667 h 7.78162 7.78161 v 17.74477 c 0,19.79926 0.65895,22.93055 5.33426,25.34825 3.42871,1.77304 8.50809,1.82838 11.79533,0.12847 4.5941,-2.3757 5.1121,-4.77593 5.30843,-24.59742 l 0.17997,-18.16983 7.31509,-0.26386 7.31509,-0.26386 v 28.19999 28.19997 h -7.26794 -7.26793 v -2.88382 -2.88384 l -2.04411,1.91896 c -5.46639,5.13171 -15.35365,6.99371 -22.88689,4.31011 z m 67.15687,-0.28099 c -9.2071,-3.18364 -14.79782,-9.43837 -17.35365,-19.41475 -5.08812,-19.86097 7.69827,-38.05339 26.69444,-37.98069 5.60128,0.0214 11.89628,2.32406 15.43461,5.64574 l 2.04412,1.91897 v -14.69424 -14.69423 h 7.72217 7.72218 v 39.51939 39.51939 h -7.72218 -7.72217 v -3.34968 -3.3497 l -2.58246,2.47414 c -3.31042,3.17159 -10.88755,6.05059 -15.82426,6.01257 -2.11824,-0.0162 -5.90399,-0.73942 -8.4128,-1.60691 z m 21.08884,-14.5171 c 3.96092,-2.82042 5.73068,-7.16142 5.73068,-14.05663 0,-9.8909 -5.35998,-15.66853 -14.53588,-15.66853 -9.3537,0 -14.10612,5.54515 -14.0464,16.38939 0.0412,7.47496 2.23174,11.97994 7.01125,14.41898 4.09566,2.09006 12.15818,1.53872 15.84035,-1.08321 z m 107.48176,14.76539 c -5.53852,-1.5339 -12.91898,-4.97017 -16.25186,-7.56671 l -2.17024,-1.69076 3.95061,-5.3519 c 2.17283,-2.94355 4.02208,-5.47504 4.10944,-5.62554 0.0874,-0.15051 2.14794,0.98806 4.57906,2.53016 8.34833,5.29543 17.81616,6.81583 24.86944,3.99368 4.1385,-1.65592 5.44282,-3.47586 5.44282,-7.59451 0,-4.48245 -3.19149,-6.79367 -14.20114,-10.28415 -12.88016,-4.0835 -17.88703,-6.50668 -21.16981,-10.24556 -9.64845,-10.98899 -3.30599,-29.45163 11.84647,-34.48447 10.17736,-3.38037 28.17488,-0.84994 34.49942,4.8506 l 2.71744,2.44933 -3.36835,5.45094 c -1.85261,2.99803 -3.47898,5.59776 -3.61416,5.77719 -0.1352,0.17942 -1.4688,-0.54462 -2.96357,-1.60899 -9.42679,-6.71246 -25.18085,-5.94146 -27.00375,1.32156 -1.38614,5.52276 2.37241,8.42417 16.44376,12.69388 10.60858,3.219 13.94248,4.96581 17.95581,9.40809 3.92585,4.34544 5.58533,9.76944 4.93413,16.12709 -0.91927,8.97466 -5.81382,15.16125 -14.86347,18.78704 -5.94487,2.38182 -19.02924,2.92215 -25.74205,1.06303 z m 126.1473,-0.0379 c -6.56606,-2.02136 -11.6672,-9.14348 -11.6672,-16.2895 0,-6.6516 5.02594,-14.10497 11.41782,-16.93246 6.68833,-2.95859 15.73508,-3.09454 22.4134,-0.33678 1.33894,0.55291 1.58986,0.14734 1.58986,-2.56973 0,-8.14649 -9.53646,-11.23709 -20.72668,-6.71714 l -5.58919,2.25757 -2.28644,-4.09089 c -2.8265,-5.05715 -2.82552,-5.12311 0.1101,-7.43228 5.65439,-4.44773 20.52302,-6.83492 28.59905,-4.59161 6.94097,1.928 12.58724,7.59333 14.38299,14.4314 0.47222,1.79828 0.98246,11.95748 1.13366,22.57598 l 0.27514,19.30636 -7.04082,-9e-4 c -6.85894,-8.9e-4 -7.04083,-0.0582 -7.04083,-2.21853 0,-3.1947 -1.24464,-3.50544 -3.67575,-0.91769 -2.39804,2.55263 -9.5747,4.98381 -14.43188,4.88902 -1.78309,-0.0348 -5.14154,-0.64807 -7.46323,-1.36281 z m 18.94016,-12.16452 c 3.56446,-2.1734 5.95479,-6.51584 5.21319,-9.47076 -1.05476,-4.20235 -11.97255,-5.43518 -17.28827,-1.95221 -2.77552,1.81861 -3.61143,5.22804 -2.14799,8.76108 1.9105,4.61237 8.8838,5.91744 14.22307,2.66189 z m 49.32985,12.34674 c -5.87001,-1.70545 -9.07891,-3.58064 -12.90125,-7.53906 -7.23763,-7.49544 -9.66172,-19.01516 -6.31785,-30.02431 3.70032,-12.18252 13.06781,-19.28064 26.46883,-20.05641 7.65485,-0.44313 11.72909,0.47404 17.97264,4.0459 l 3.87283,2.21564 -2.43245,4.27012 c -3.40684,5.98033 -3.20688,5.87951 -7.65542,3.86134 -8.48506,-3.84945 -18.24499,-1.43132 -21.72067,5.38153 -2.30727,4.52262 -2.46797,13.39337 -0.32448,17.91045 0.82761,1.74403 3.10982,4.23319 5.07168,5.53147 4.78205,3.16459 13.29744,3.33802 18.32237,0.37318 1.8526,-1.09304 3.48825,-1.98733 3.63484,-1.98733 0.1466,0 1.56989,2.09667 3.16292,4.65927 2.6854,4.31993 2.78976,4.77699 1.43376,6.27544 -4.46708,4.93603 -19.74404,7.65221 -28.58775,5.08277 z m 54.76935,-0.0741 c -13.17168,-4.11646 -20.40749,-13.86838 -20.5466,-27.69126 -0.12489,-12.41145 5.15684,-21.85179 15.17789,-27.12876 4.10784,-2.16311 5.66832,-2.4512 13.28525,-2.45284 10.19693,-0.002 13.96906,1.54872 19.75555,8.12245 4.19165,4.76198 6.08371,10.39882 6.11472,18.21695 l 0.0221,5.45094 -19.41533,0.24551 -19.41542,0.24551 0.5568,2.78355 c 1.95782,9.78934 13.69344,13.77345 25.02864,8.49695 3.85526,-1.79462 5.09174,-2.03926 5.69462,-1.12674 4.24541,6.42569 4.53677,7.13916 3.45024,8.44823 -5.11334,6.16118 -20.11478,9.38764 -29.70816,6.38951 z m 18.81264,-37.31867 c -0.86247,-3.82368 -2.17988,-5.55362 -5.56109,-7.30208 -5.73235,-2.96437 -13.78723,-0.55896 -16.64707,4.97132 -2.81645,5.44633 -2.64164,5.53624 10.76208,5.53624 H 920.7467 Z M 185.07556,125.15731 c -0.74079,-0.29076 -4.82901,-3.27164 -9.08492,-6.62415 -10.29332,-8.10838 -20.34265,-14.3964 -33.84388,-21.176606 l -11.14231,-5.595583 v -9.084918 -9.084918 l 2.27123,0.317327 c 1.24917,0.17453 12.90058,5.457347 25.89201,11.739595 19.21114,9.289892 24.384,11.430701 27.709,11.467479 3.37187,0.03725 7.82912,-1.725322 25.43777,-10.059362 11.74226,-5.557526 22.37162,-10.24746 23.6208,-10.422073 2.26646,-0.316827 2.27177,-0.299893 2.53255,8.095017 l 0.26134,8.412507 -10.53178,5.043888 c -10.91133,5.225667 -26.5634,15.284257 -35.98654,23.126277 -2.98566,2.48469 -5.50945,4.48535 -5.60843,4.44591 -0.099,-0.0395 -0.78606,-0.30963 -1.52684,-0.60039 z m 62.36539,-6.43059 c -2.38248,-2.6326 -3.33051,-7.09209 -3.31712,-15.6036 0.01,-6.213149 0.54169,-9.242037 2.71332,-15.450362 2.2704,-6.490682 2.7031,-9.121667 2.71332,-16.497712 l 0.0122,-8.77554 -30.0382,14.453614 c -16.521,7.949486 -31.13637,14.454269 -32.47858,14.455086 -3.55017,0.0018 -83.61208,-39.01658 -84.26251,-41.065938 -0.83328,-2.625433 0.39353,-5.049698 3.51162,-6.939242 8.6038,-5.213872 76.14935,-38.3030253 78.1887,-38.3030253 1.32475,0 20.44123,9.0788313 42.57566,20.2201123 41.46747,20.8725 43.64885,22.250301 41.52128,26.225724 -0.4682,0.874815 -2.99687,2.740403 -5.61928,4.145749 l -4.76804,2.555187 -0.25658,10.748231 c -0.22775,9.539983 0.002,11.497546 2.04411,17.413944 1.93496,5.606112 2.30046,8.302254 2.29927,16.960772 -9e-4,7.98115 -0.35843,11.00974 -1.58985,13.47477 -1.49708,2.99681 -1.87878,3.1951 -6.63523,3.4469 -4.03292,0.21351 -5.36164,-0.0807 -6.61407,-1.46467 z"
       id="path1" /></g></svg>
